<svg version="1.1" xmlns="http://www.w3.org/2000/svg" viewBox="116.87 93.6 433.87 501.47">
<path d="M0 0 C1.17729268 -0.00382555 2.35458536 -0.00765109 3.56755358 -0.01159257 C6.7948548 -0.02005062 10.02200805 -0.01971796 13.24931276 -0.01541197 C16.7456474 -0.01292549 20.2419563 -0.02198247 23.73828125 -0.02944946 C30.57188994 -0.04214482 37.40545924 -0.04399669 44.23907774 -0.0416492 C49.79738563 -0.03986034 55.35568164 -0.04162781 60.91398811 -0.04587364 C61.70748866 -0.04646883 62.50098921 -0.04706402 63.31853523 -0.04767724 C64.93093105 -0.04888909 66.54332687 -0.05010323 68.15572269 -0.05131962 C83.24796738 -0.06217493 98.34018969 -0.06004201 113.43243564 -0.05393478 C127.2152804 -0.04876551 140.99805449 -0.0600249 154.78088527 -0.07903299 C168.96302674 -0.09844059 183.14513482 -0.1066624 197.32728964 -0.10290974 C205.27755249 -0.10100237 213.22775517 -0.10344 221.17800713 -0.11762428 C227.94498916 -0.12957626 234.71187398 -0.13090028 241.47885745 -0.11883412 C244.92572393 -0.11297252 248.37241294 -0.11176988 251.81926727 -0.12383652 C274.64279849 -0.18782414 294.07891793 0.74946372 311.5973053 17.26069641 C328.90670853 35.37600304 329.76151207 58.82718204 329.72669983 82.49897766 C329.72805875 84.07436666 329.72984143 85.64975534 329.73200989 87.22514343 C329.73652583 91.46066458 329.73481895 95.69616107 329.7316308 99.93168259 C329.72907676 104.39071971 329.73145315 108.8497549 329.73301697 113.30879211 C329.73482984 120.79308954 329.73245558 128.27737706 329.72767639 135.76167297 C329.72223548 144.38109157 329.72399876 153.0004865 329.7295028 161.61990452 C329.73405914 169.05643953 329.73467218 176.49296748 329.73206413 183.92950344 C329.73051518 188.35522283 329.7302693 192.78093113 329.73360062 197.20664978 C329.73651616 201.36986509 329.73443687 205.53305026 329.72870636 209.69626236 C329.72739833 211.21264725 329.727739 212.72903473 329.72996902 214.24541855 C329.76414152 239.86946601 329.76414152 239.86946601 326.7223053 251.01069641 C326.40845886 252.1758075 326.40845886 252.1758075 326.08827209 253.36445618 C316.59173956 286.39824903 298.10704208 318.19523943 278.5973053 346.26069641 C277.93601624 347.21347473 277.93601624 347.21347473 277.2613678 348.1855011 C269.28053446 359.63074163 261.01047878 370.94360892 251.5973053 381.26069641 C247.40031885 380.75560454 245.52142475 378.48868783 242.6676178 375.51850891 C241.70489033 374.52974326 240.74199322 373.54114275 239.77894592 372.5526886 C239.03028259 371.77604858 239.03028259 371.77604858 238.26649475 370.98371887 C229.56211343 361.97588837 220.7715718 353.59850074 210.5973053 346.26069641 C209.44737589 345.37498919 208.30032238 344.48553792 207.15589905 343.59272766 C158.94374578 306.40369161 96.88448547 289.89695025 36.8004303 288.99897766 C35.66729401 288.98170624 34.53415771 288.96443481 33.36668396 288.94664001 C27.69724261 288.86770013 22.02949711 288.81926821 16.35951233 288.81440735 C-0.45817508 288.72912536 -18.3591564 288.03164491 -33.5901947 280.07319641 C-34.36717712 279.6859137 -35.14415955 279.29863098 -35.94468689 278.89961243 C-42.32883669 275.58507427 -47.5295343 271.57167982 -52.4026947 266.26069641 C-53.3617572 265.2745636 -53.3617572 265.2745636 -54.3401947 264.26850891 C-65.13667116 252.68091133 -71.49467146 237.1767063 -71.54986572 221.31323242 C-71.55354241 220.62604545 -71.5572191 219.93885848 -71.5610072 219.23084766 C-71.57199594 216.93439308 -71.57587977 214.63798383 -71.57969666 212.34150696 C-71.58596529 210.69187274 -71.59261244 209.04223993 -71.59960938 207.39260864 C-71.62061687 201.97755408 -71.63101345 196.56249937 -71.64097595 191.14741516 C-71.64502572 189.27773843 -71.64914271 187.40806183 -71.65332603 185.53838539 C-71.67237593 176.74658248 -71.68660347 167.95478791 -71.694938 159.16296834 C-71.70468895 149.04607872 -71.73095315 138.92940915 -71.7714389 128.81259698 C-71.80171794 120.97451722 -71.81641827 113.13650008 -71.81971902 105.29836303 C-71.82205743 100.62642854 -71.830858 95.95472913 -71.85618019 91.28285789 C-71.87967104 86.87752465 -71.88361093 82.47257773 -71.87341881 78.0671978 C-71.87292828 76.46295629 -71.87910341 74.8586944 -71.89297485 73.25451279 C-72.00413995 59.61953593 -70.24931489 46.18957317 -63.7776947 33.94819641 C-63.43633484 33.29069397 -63.09497498 32.63319153 -62.74327087 31.95576477 C-55.54982722 18.71795373 -42.91185421 7.51365372 -28.36425644 3.04312533 C-19.01964232 0.57432779 -9.6227856 -0.03388783 0 0 Z M-45.60191345 44.10444641 C-52.82253778 54.88240139 -53.84769654 64.50819789 -53.80674744 77.23847961 C-53.81245785 78.84593681 -53.8194247 80.45338996 -53.82754517 82.06083679 C-53.84542011 86.40607127 -53.8443186 90.75110317 -53.83860278 95.09636331 C-53.83550192 98.73421898 -53.84161352 102.37203625 -53.84764153 106.00988644 C-53.8616673 114.59864951 -53.86014243 123.18731308 -53.84873962 131.77607727 C-53.83726734 140.61196006 -53.85132353 149.44753901 -53.8781361 158.28338176 C-53.90035117 165.89135276 -53.90691722 173.49922879 -53.90105969 181.10722989 C-53.89770192 185.64145924 -53.90002589 190.175494 -53.91731071 194.70969582 C-53.9328701 198.97722072 -53.92872559 203.24429867 -53.91000557 207.51180649 C-53.90634405 209.06934084 -53.90935623 210.62690898 -53.91989136 212.184412 C-54.01610632 227.59713199 -50.43116407 241.29515018 -39.9261322 253.02632141 C-28.146731 264.3644194 -15.72083193 268.57417079 0.29829407 268.52812195 C1.4604751 268.53265306 2.62265613 268.53718417 3.82005477 268.54185259 C7.02830453 268.55228711 10.23641253 268.55382856 13.44467378 268.55146384 C16.91175058 268.5510543 20.37879442 268.5621079 23.84585571 268.57157898 C30.63201565 268.58816032 37.41814083 268.59368723 44.20431933 268.59480374 C49.72319554 268.59575558 55.24206033 268.5998727 60.76093292 268.60620499 C76.42408117 268.62380967 92.08720207 268.63304508 107.75036028 268.63154404 C109.01578703 268.63142417 109.01578703 268.63142417 110.30677795 268.63130188 C111.15143143 268.63122012 111.9960849 268.63113836 112.86633393 268.63105412 C126.55063565 268.63024147 140.23482723 268.64937591 153.9190971 268.67757861 C167.98581051 268.70633967 182.05247027 268.72011713 196.11921382 268.71839106 C204.01026612 268.71772827 211.90120296 268.72317198 219.7922287 268.74474716 C226.51146531 268.76300145 233.23053411 268.7672716 239.94978485 268.75372832 C243.37414515 268.74721991 246.79818393 268.74700351 250.2225132 268.76443481 C253.94475405 268.77992031 257.66615851 268.77055587 261.38838196 268.75517273 C262.99114577 268.77060342 262.99114577 268.77060342 264.62628865 268.78634584 C277.71621529 268.66734553 288.23921925 264.09320489 297.7848053 255.22944641 C305.821646 246.82729477 310.70395039 237.07464913 310.74447632 225.45126343 C310.74999135 224.42471489 310.74999135 224.42471489 310.7556178 223.377428 C310.76662864 221.08468496 310.77049413 218.79198729 310.77430725 216.4992218 C310.78057412 214.85471961 310.78722112 213.21021884 310.79421997 211.5657196 C310.81524526 206.16327395 310.82562449 200.76082808 310.83558655 195.35835266 C310.8396354 193.49511132 310.84375236 191.63187012 310.84793663 189.76862907 C310.86698903 181.00939903 310.88121704 172.25017739 310.8895486 163.49093062 C310.8993059 153.40060105 310.92558574 143.31049173 310.96604949 133.2202397 C310.99629004 125.40940296 311.01102519 117.59862904 311.01432961 109.78773493 C311.01667206 105.12873617 311.02552629 100.46997268 311.05079079 95.81103706 C311.07421426 91.42049985 311.07824792 87.03035039 311.0680294 82.63976669 C311.0675373 81.03749101 311.0737606 79.43519532 311.08758545 77.8329792 C311.21086747 62.68462433 308.50715627 50.23944616 298.2848053 38.63569641 C297.3979303 37.85194641 296.5110553 37.06819641 295.5973053 36.26069641 C294.97339905 35.69479797 294.3494928 35.12889954 293.7066803 34.54585266 C284.34055316 26.57790637 274.14750662 24.65560452 262.11831665 24.74603271 C260.32197427 24.73561442 260.32197427 24.73561442 258.48934215 24.72498566 C255.20069414 24.70996792 251.91263643 24.71260596 248.62398946 24.72313869 C245.06355254 24.73017755 241.50320481 24.71409753 237.9427948 24.70114136 C230.98167722 24.67957408 224.02072358 24.67960945 217.05958361 24.6877669 C211.39825678 24.69408386 205.73697752 24.69291438 200.07565117 24.68649483 C199.2678496 24.68559317 198.46004804 24.68469152 197.62776763 24.68376254 C195.98637954 24.68191121 194.34499145 24.68004865 192.70360338 24.67817498 C177.33524689 24.66162189 161.96698238 24.67029451 146.59863143 24.68716056 C132.55956741 24.70185562 118.52071746 24.68722747 104.481681 24.6583904 C90.04078654 24.62895041 75.59999071 24.61803749 61.15906757 24.6275726 C59.5236368 24.62859507 57.888206 24.62958969 56.25277519 24.63055611 C55.44825999 24.6310325 54.6437448 24.63150889 53.81485035 24.63199971 C48.16566803 24.63415775 42.51657977 24.6243924 36.86741829 24.60978508 C29.97515645 24.59221086 23.08316737 24.59245168 16.19091601 24.61513674 C12.67926803 24.62623303 9.16809967 24.6295477 5.65647316 24.61083603 C1.83828852 24.5948433 -1.97859805 24.60991808 -5.79672241 24.63250732 C-6.89071789 24.6206716 -7.98471336 24.60883587 -9.11186022 24.59664148 C-24.8727054 24.78505299 -36.18959766 31.93363665 -45.60191345 44.10444641 Z " fill="#000000" transform="translate(201.40269470214844,93.73930358886719)"/>
<path d="M0 0 C8.99734043 6.80156092 13.17181468 14.17911628 15.1875 25.234375 C16.42621252 34.91748139 13.70108941 44.22065826 8 52.109375 C4.30799553 56.46404694 0.18210008 59.51004768 -4.8125 62.234375 C-5.42609375 62.5746875 -6.0396875 62.915 -6.671875 63.265625 C-13.67837181 66.49939276 -22.27773779 66.33692021 -29.65625 64.54296875 C-39.71891266 60.83158545 -46.58812757 54.56361148 -51.8125 45.234375 C-55.65557023 36.58065303 -56.16423399 27.61586538 -53.25 18.609375 C-49.4660429 9.30216823 -42.87184664 1.5133065 -33.66796875 -2.76171875 C-21.87295242 -7.33529651 -10.95270837 -6.87586692 0 0 Z " fill="#000000" transform="translate(245.8125,213.765625)"/>
<path d="M0 0 C3.32442655 3.16311472 5.63682691 6.7669153 7.8515625 10.76171875 C8.36396484 11.64923828 8.36396484 11.64923828 8.88671875 12.5546875 C12.60566982 20.39043093 12.19356591 32.07870888 9.4140625 40.13671875 C4.91463556 49.56484658 -3.03173754 56.9910951 -12.70703125 60.7578125 C-21.86519819 63.68063174 -30.37945138 63.29093237 -39.0234375 58.984375 C-49.06186306 53.2085897 -55.51793507 45.60977238 -58.8359375 34.44921875 C-60.12412882 23.37077336 -58.45551609 14.03710418 -51.875 4.86328125 C-45.95516998 -2.3423037 -39.24605672 -6.47674681 -30.3359375 -9.05078125 C-18.60743608 -9.7406931 -9.23990314 -7.30725407 0 0 Z " fill="#000000" transform="translate(458.1484375,217.23828125)"/>
<path d="M0 0 C8.91546905 6.81923395 14.86211042 13.83375656 17 25 C18.01382846 34.84512938 16.9473677 43.55263258 11.046875 51.6953125 C4.94572836 58.84176049 -2.02045214 65.20306956 -11.55078125 66.81640625 C-22.95590234 67.67133558 -32.20886016 64.8175625 -41.1484375 57.765625 C-47.77209592 51.44939377 -52.29588872 42.76782749 -52.56982422 33.59301758 C-52.56740723 32.84044678 -52.56499023 32.08787598 -52.5625 31.3125 C-52.56008301 30.52447998 -52.55766602 29.73645996 -52.55517578 28.92456055 C-52.32557802 21.56917856 -50.15290847 16.09029303 -46 10 C-45.55527344 9.31550781 -45.11054688 8.63101563 -44.65234375 7.92578125 C-34.92353108 -5.14996989 -13.6343869 -8.50731296 0 0 Z " fill="#000000" transform="translate(348,213)"/>
<path d="M0 0 C2.9375 1.5 2.9375 1.5 5 4 C6.12472916 7.61097257 6.39272667 10.75636554 5.25 14.375 C3.39714976 16.78370531 1.66476881 17.9045574 -1.33984375 18.3359375 C-8.27795715 18.44027003 -8.27795715 18.44027003 -11.5625 16.4375 C-13.48362165 13.17994589 -13.93370805 10.77864098 -14 7 C-11.12733316 0.53649962 -6.81715825 -1.03652698 0 0 Z " fill="#000000" transform="translate(201,505)"/>
<path d="M0 0 C6.6798904 5.4371201 9.29043887 10.99196137 11.6875 19.1875 C11.6875 19.8475 11.6875 20.5075 11.6875 21.1875 C5.7475 21.1875 -0.1925 21.1875 -6.3125 21.1875 C-7.51692708 18.90885417 -8.72135417 16.63020833 -9.92578125 14.3515625 C-11.28028724 11.91915957 -11.28028724 11.91915957 -14.3125 10.1875 C-19.14183206 9.55341976 -23.7264402 9.26537221 -28 11.75 C-29.85815027 15.20085051 -29.92262353 17.32338434 -29.3125 21.1875 C-25.73568098 25.5814949 -22.49787351 27.15205731 -17.125 28.75 C-15.78586431 29.16736966 -14.44732149 29.58664625 -13.109375 30.0078125 C-11.85640625 30.39710938 -10.6034375 30.78640625 -9.3125 31.1875 C-1.31725759 33.90246199 6.60314897 37.18583468 11.1875 44.6875 C13.92084426 51.06121755 14.15151564 59.19416373 11.76953125 65.69140625 C6.83551932 74.10637158 -0.17054036 77.65433697 -9.3125 80.1875 C-19.84998483 82.51417665 -31.68591218 80.99604478 -41.12109375 75.7421875 C-46.10729742 72.20473819 -50.87070153 67.27509356 -52.3125 61.1875 C-52.33483111 59.18762467 -52.33715566 57.18734802 -52.3125 55.1875 C-35.85292909 53.95687788 -35.85292909 53.95687788 -32.21484375 56.86328125 C-31.0625 59 -31.0625 59 -30.15625 61.20703125 C-29.38053516 63.49785528 -29.38053516 63.49785528 -26.5625 65.1875 C-20.94400415 66.91626795 -16.3031542 66.96954272 -10.8125 64.8125 C-8.22227444 63.42888268 -8.22227444 63.42888268 -7.3125 61.1875 C-6.85004163 57.10245107 -6.79640296 54.95274733 -9.125 51.5 C-14.35124158 47.70841297 -20.24457107 46.11374096 -26.37890625 44.26171875 C-35.5872881 41.40394507 -43.61195517 38.00102155 -48.3125 29.1875 C-50.32599338 23.14701985 -50.40359506 16.35296945 -48.32421875 10.3203125 C-44.18594815 2.64994051 -37.69512448 -1.67580589 -29.4375 -4.1875 C-19.11530622 -6.20615483 -9.22164807 -5.04580744 0 0 Z " fill="#000000" transform="translate(537.3125,513.8125)"/>
<path d="M0 0 C6.27 0 12.54 0 19 0 C19.33 21.78 19.66 43.56 20 66 C40.295 66.495 40.295 66.495 61 67 C61 71.95 61 76.9 61 82 C53.19424413 82.02255497 45.38850593 82.04091738 37.58272648 82.05181217 C33.9585404 82.05704002 30.3343777 82.06413587 26.71020508 82.07543945 C23.21540025 82.08627184 19.72061796 82.09227758 16.22579765 82.09487724 C14.23760611 82.09763551 12.24942369 82.10544688 10.26124573 82.11329651 C9.06007614 82.11337204 7.85890656 82.11344757 6.62133789 82.11352539 C5.02582848 82.11685631 5.02582848 82.11685631 3.39808655 82.12025452 C1 82 1 82 0 81 C-0.09504251 78.47458998 -0.12557158 75.97662874 -0.11352539 73.45092773 C-0.11367142 72.66074249 -0.11381744 71.87055725 -0.1139679 71.056427 C-0.11326857 68.43212178 -0.10547527 65.80788664 -0.09765625 63.18359375 C-0.09579214 61.36898335 -0.0943682 59.55437244 -0.09336853 57.73976135 C-0.08954279 52.9540977 -0.07971204 48.1684642 -0.06866455 43.3828125 C-0.05845163 38.50325936 -0.05387117 33.62370136 -0.04882812 28.74414062 C-0.03808981 19.16274501 -0.02049257 9.58137972 0 0 Z " fill="#000000" transform="translate(117,511)"/>
<path d="M0 0 C24.09 0 48.18 0 73 0 C73 4.62 73 9.24 73 14 C64.09 14 55.18 14 46 14 C46.00523682 16.02439209 46.01047363 18.04878418 46.01586914 20.13452148 C46.03240688 26.80812019 46.04347196 33.48171978 46.05181217 40.15533352 C46.05704041 44.20325742 46.06413699 48.25116041 46.07543945 52.29907227 C46.08627043 56.20235971 46.09227728 60.10562699 46.09487724 64.0089283 C46.09673111 65.50133647 46.100351 66.99374348 46.10573006 68.48614311 C46.11294331 70.56948139 46.11399083 72.65273531 46.11352539 74.73608398 C46.115746 75.92411118 46.11796661 77.11213837 46.12025452 78.33616638 C46 81 46 81 45 82 C42.15664952 82.09986975 39.34302837 82.13877881 36.5 82.125 C35.30310547 82.13080078 35.30310547 82.13080078 34.08203125 82.13671875 C28.12660767 82.12660767 28.12660767 82.12660767 27 81 C26.90582227 78.91380978 26.88257122 76.82439523 26.88647461 74.73608398 C26.88632858 74.08244873 26.88618256 73.42881348 26.8860321 72.75537109 C26.88673117 70.58557872 26.89452322 68.41587121 26.90234375 66.24609375 C26.90420795 64.74536689 26.90563184 63.24463943 26.90663147 61.74391174 C26.91045648 57.78681774 26.9202866 53.82976022 26.93133545 49.87268066 C26.94154994 45.83765151 26.94612917 41.80261647 26.95117188 37.76757812 C26.9619089 29.84503344 26.97950555 21.92252546 27 14 C18.09 14 9.18 14 0 14 C0 9.38 0 4.76 0 0 Z " fill="#000000" transform="translate(332,511)"/>
<path d="M0 0 C24.09 0 48.18 0 73 0 C73 4.62 73 9.24 73 14 C64.09 14 55.18 14 46 14 C46.00523682 16.02439209 46.01047363 18.04878418 46.01586914 20.13452148 C46.03240688 26.80812019 46.04347196 33.48171978 46.05181217 40.15533352 C46.05704041 44.20325742 46.06413699 48.25116041 46.07543945 52.29907227 C46.08627043 56.20235971 46.09227728 60.10562699 46.09487724 64.0089283 C46.09673111 65.50133647 46.100351 66.99374348 46.10573006 68.48614311 C46.11294331 70.56948139 46.11399083 72.65273531 46.11352539 74.73608398 C46.115746 75.92411118 46.11796661 77.11213837 46.12025452 78.33616638 C46 81 46 81 45 82 C42.15664952 82.09986975 39.34302837 82.13877881 36.5 82.125 C35.30310547 82.13080078 35.30310547 82.13080078 34.08203125 82.13671875 C28.12660767 82.12660767 28.12660767 82.12660767 27 81 C26.90582227 78.91380978 26.88257122 76.82439523 26.88647461 74.73608398 C26.88632858 74.08244873 26.88618256 73.42881348 26.8860321 72.75537109 C26.88673117 70.58557872 26.89452322 68.41587121 26.90234375 66.24609375 C26.90420795 64.74536689 26.90563184 63.24463943 26.90663147 61.74391174 C26.91045648 57.78681774 26.9202866 53.82976022 26.93133545 49.87268066 C26.94154994 45.83765151 26.94612917 41.80261647 26.95117188 37.76757812 C26.9619089 29.84503344 26.97950555 21.92252546 27 14 C18.09 14 9.18 14 0 14 C0 9.38 0 4.76 0 0 Z " fill="#000000" transform="translate(407,511)"/>
<path d="M0 0 C5.94 0 11.88 0 18 0 C18 5.28 18 10.56 18 16 C21.1865625 15.9690625 21.1865625 15.9690625 24.4375 15.9375 C26.62499611 15.91626217 28.81360547 15.92741054 31 16 C32 17 32 17 32.1328125 18.99609375 C32.13023437 19.80175781 32.12765625 20.60742188 32.125 21.4375 C32.12886719 22.64212891 32.12886719 22.64212891 32.1328125 23.87109375 C32 26 32 26 31 28 C26.71 28 22.42 28 18 28 C18.11840796 32.91145542 18.24266723 37.8227151 18.37231445 42.73388672 C18.41558489 44.40409334 18.45726549 46.07434194 18.49731445 47.74462891 C18.55520851 50.14758955 18.6188474 52.55034041 18.68359375 54.953125 C18.70030624 55.69806213 18.71701874 56.44299927 18.73423767 57.21051025 C18.83309323 60.68205988 19.15166747 63.60666987 20 67 C23.3 67.33 26.6 67.66 30 68 C30 71.96 30 75.92 30 80 C26.79115216 80.08127476 23.58438239 80.14063141 20.375 80.1875 C19.47136719 80.21263672 18.56773437 80.23777344 17.63671875 80.26367188 C11.42382978 80.33169621 7.12667261 79.58759113 2.1875 75.5 C0.04108469 72.78873855 -0.13551968 70.12456402 -0.20532227 66.80395508 C-0.22526749 65.96331009 -0.24521271 65.1226651 -0.26576233 64.25654602 C-0.28247482 63.35333115 -0.29918732 62.45011627 -0.31640625 61.51953125 C-0.33718735 60.59154221 -0.35796844 59.66355316 -0.37937927 58.70744324 C-0.44477323 55.7425376 -0.50371262 52.77754328 -0.5625 49.8125 C-0.60569487 47.8027252 -0.64930947 45.79295937 -0.69335938 43.78320312 C-0.80044427 38.85555968 -0.90174045 33.92782701 -1 29 C-2.299375 28.855625 -3.59875 28.71125 -4.9375 28.5625 C-8.875 28.125 -8.875 28.125 -10 27 C-10.07226502 25.14712498 -10.0838122 23.29166122 -10.0625 21.4375 C-10.05347656 20.42558594 -10.04445312 19.41367187 -10.03515625 18.37109375 C-10.02355469 17.58863281 -10.01195312 16.80617188 -10 16 C-7.03 16 -4.06 16 -1 16 C-0.67 10.72 -0.34 5.44 0 0 Z " fill="#000000" transform="translate(225,514)"/>
<path d="M0 0 C6.22396722 5.76675636 9.96080092 14.75004185 10.3828125 23.140625 C10.38023437 24.00171875 10.37765625 24.8628125 10.375 25.75 C10.37886719 27.05710937 10.37886719 27.05710937 10.3828125 28.390625 C10.25 30.5 10.25 30.5 9.25 31.5 C7.86839885 31.5927833 6.48211962 31.61747043 5.09741211 31.61352539 C4.21657455 31.61344986 3.335737 31.61337433 2.4282074 31.61329651 C1.47092239 31.60813522 0.51363739 31.60297394 -0.47265625 31.59765625 C-1.44786728 31.5962413 -2.42307831 31.59482635 -3.42784119 31.59336853 C-6.55609143 31.58775133 -9.68427123 31.57519593 -12.8125 31.5625 C-14.92773334 31.55748722 -17.04296781 31.55292393 -19.15820312 31.54882812 C-24.35549296 31.53777631 -29.55274145 31.52102146 -34.75 31.5 C-34.30041822 33.11537308 -33.84161522 34.72818176 -33.37890625 36.33984375 C-33.12439697 37.23823975 -32.8698877 38.13663574 -32.60766602 39.06225586 C-31.28229744 42.829351 -29.25682237 44.74658882 -25.75 46.5 C-23.67435324 46.69758231 -23.67435324 46.69758231 -21.375 46.6875 C-20.60414063 46.70167969 -19.83328125 46.71585938 -19.0390625 46.73046875 C-16.3528406 46.46001296 -14.95229794 46.08148556 -12.75 44.5 C-11.76 42.52 -10.77 40.54 -9.75 38.5 C-3.81 38.5 2.13 38.5 8.25 38.5 C7.02549669 45.84701987 4.79037902 49.50124613 -0.84375 54.2734375 C-9.31107287 60.05944146 -19.64318466 61.37439511 -29.6875 59.9375 C-38.43640624 57.87664653 -44.64984297 52.81879297 -49.75 45.5 C-54.83195049 35.57809666 -54.65629686 24.99498713 -51.77734375 14.4609375 C-48.65005819 5.44769622 -42.94597341 0.14570474 -34.75 -4.5 C-23.41428274 -9.51387494 -9.78629802 -7.20646782 0 0 Z M-29.75 8.5 C-33.23677023 12.61260079 -33.75 13.96691243 -33.75 19.5 C-25.83 19.5 -17.91 19.5 -9.75 19.5 C-9.92528327 11.83295337 -9.92528327 11.83295337 -13.4375 8.5625 C-19.59377318 4.72934878 -23.43171043 4.87283377 -29.75 8.5 Z " fill="#000000" transform="translate(315.75,534.5)"/>
<path d="M0 0 C5.94 0 11.88 0 18 0 C18 20.79 18 41.58 18 63 C12.06 63 6.12 63 0 63 C0 42.21 0 21.42 0 0 Z " fill="#000000" transform="translate(188,530)"/>
</svg>